<svg width="757" height="278" viewBox="0 0 757 278" fill="none" xmlns="http://www.w3.org/2000/svg">
<path d="M62.507 177.541C49.408 177.541 37.8794 176.279 27.9212 173.754C18.0395 171.229 8.8473 168.092 0.344482 164.343V123.716H4.25118C12.8306 130.985 22.2909 136.57 32.6322 140.472C42.9735 144.374 53.0083 146.325 62.7368 146.325C65.188 146.325 68.4053 146.057 72.3886 145.522C76.4485 144.986 79.7041 144.144 82.1554 142.997C85.1428 141.696 87.6707 139.898 89.739 137.603C91.8072 135.231 92.8413 132.132 92.8413 128.307C92.8413 124.022 91.1561 120.541 87.7856 117.863C84.4151 115.185 80.3935 113.234 75.7208 112.01C69.8991 110.48 63.656 109.026 56.9916 107.649C50.4039 106.272 44.2374 104.589 38.4923 102.6C25.2401 97.9325 15.7415 91.6587 9.99633 83.7782C4.25118 75.8977 1.37861 66.0279 1.37861 54.1689C1.37861 38.1784 8.15788 25.2482 21.7164 15.3785C35.275 5.43219 52.204 0.459059 72.5035 0.459059C82.6916 0.459059 92.803 1.49194 102.838 3.5577C112.949 5.62347 127.867 9.26092 135.834 12.7804V51.6989H129.839C123.481 46.2667 112.03 40.9327 102.838 37.1838C93.7223 33.4348 84.3385 31.5603 74.6867 31.5603C70.9332 31.5603 67.5627 31.8281 64.5752 32.3636C61.5877 32.8992 58.4471 33.9321 55.1532 35.4623C52.4721 36.6864 50.1357 38.5227 48.1441 40.971C46.229 43.3428 45.2715 46.0206 45.2715 49.0045C45.2715 53.3656 46.8036 56.8468 49.8676 59.4481C53.0083 61.9729 59.0216 64.2682 67.9074 66.334C73.6525 67.6346 79.1679 68.897 84.4534 70.1212C89.8156 71.3454 95.5224 73.0286 101.574 75.1709C113.447 79.4554 122.257 85.2319 128.002 92.5003C133.823 99.6922 136.734 109.218 136.734 121.077C136.734 138.062 130.032 151.719 116.626 162.048C103.298 172.377 85.2577 177.541 62.507 177.541Z" fill="white"/>
<path d="M309.898 89.0574C309.898 116.677 302.505 138.406 287.721 154.244C272.937 170.081 252.676 178 226.938 178C201.123 178 180.862 170.005 166.154 154.014C151.446 137.947 144.093 116.295 144.093 89.0574C144.093 61.5904 151.446 39.8998 166.154 23.9858C180.862 7.99527 201.123 0 226.938 0C252.676 0 272.937 7.95702 287.721 23.871C302.505 39.7086 309.898 61.4374 309.898 89.0574ZM265.545 88.9426C265.545 78.7668 264.473 70.1212 262.328 63.0058C260.26 55.8139 257.464 49.9226 253.94 45.332C250.263 40.6649 246.088 37.3368 241.415 35.3475C236.819 33.2818 232.032 32.2489 227.053 32.2489C221.767 32.2489 216.979 33.2052 212.69 35.118C208.4 36.9542 204.263 40.2824 200.28 45.1025C196.756 49.5401 193.884 55.4313 191.662 62.7763C189.518 70.1212 188.445 78.8816 188.445 89.0574C188.445 99.5392 189.479 108.261 191.548 115.224C193.616 122.11 196.45 127.886 200.05 132.553C203.727 137.297 207.902 140.701 212.575 142.767C217.248 144.756 222.073 145.751 227.053 145.751C232.108 145.751 237.011 144.68 241.76 142.538C246.509 140.319 250.608 136.914 254.055 132.324C257.732 127.351 260.566 121.574 262.558 114.994C264.549 108.338 265.545 99.654 265.545 88.9426Z" fill="white"/>
<path d="M444.913 174.442H330.7V3.5577H373.673V141.849H444.913V174.442Z" fill="white"/>
<path d="M529.831 178C506.85 178 489.155 172.453 476.746 161.359C464.413 150.265 458.246 134.045 458.246 112.699V3.5577H501.22V110.174C501.22 122.033 503.442 130.87 507.885 136.685C512.404 142.499 519.72 145.407 529.831 145.407C539.713 145.407 546.952 142.614 551.548 137.029C556.22 131.444 558.557 122.492 558.557 110.174V3.5577H601.53V112.584C601.53 133.624 595.479 149.806 583.376 161.13C571.349 172.377 553.501 178 529.831 178Z" fill="white"/>
<path d="M682.771 177.541C669.672 177.541 658.144 176.279 648.186 173.754C638.304 171.229 629.112 168.092 620.609 164.343V123.716H624.516C633.095 130.985 642.555 136.57 652.897 140.472C663.238 144.374 673.273 146.325 683.001 146.325C685.452 146.325 688.67 146.057 692.653 145.522C696.713 144.986 699.968 144.144 702.42 142.997C705.407 141.696 707.935 139.898 710.003 137.603C712.072 135.231 713.106 132.132 713.106 128.307C713.106 124.022 711.421 120.541 708.05 117.863C704.68 115.185 700.658 113.234 695.985 112.01C690.163 110.48 683.92 109.026 677.256 107.649C670.668 106.272 664.502 104.589 658.757 102.6C645.505 97.9325 636.006 91.6587 630.261 83.7782C624.516 75.8977 621.643 66.0279 621.643 54.1689C621.643 38.1784 628.422 25.2482 641.981 15.3785C655.539 5.43219 672.468 0.459059 692.768 0.459059C702.956 0.459059 713.067 1.49194 723.102 3.5577C733.214 5.62347 745.319 9.26092 753.286 12.7804V50.9555H747.291C740.933 45.5233 732.295 40.9327 723.102 37.1838C713.987 33.4348 704.603 31.5603 694.951 31.5603C691.198 31.5603 687.827 31.8281 684.84 32.3636C681.852 32.8992 678.711 33.9321 675.418 35.4623C672.737 36.6864 670.4 38.5227 668.409 40.971C666.493 43.3428 665.536 46.0206 665.536 49.0045C665.536 53.3656 667.068 56.8468 670.132 59.4481C673.273 61.9729 679.286 64.2682 688.172 66.334C693.917 67.6346 699.432 68.897 704.718 70.1212C710.08 71.3454 715.787 73.0286 721.838 75.1709C733.712 79.4554 742.521 85.2319 748.266 92.5003C754.088 99.6922 756.999 109.218 756.999 121.077C756.999 138.062 750.296 151.719 736.891 162.048C723.562 172.377 705.522 177.541 682.771 177.541Z" fill="white"/>
<line y1="-2.37601" x2="330" y2="-2.37601" transform="matrix(1 -1.22848e-07 -6.78552e-08 -1 0.999756 262)" stroke="url(#paint0_linear_1_105)" stroke-width="4.75203"/>
<line y1="-2.37601" x2="330" y2="-2.37601" transform="matrix(1 -1.22925e-07 -6.7832e-08 -1 0.999756 228)" stroke="url(#paint1_linear_1_105)" stroke-width="4.75203"/>
<line y1="-2.37601" x2="330" y2="-2.37601" transform="matrix(1 -1.22848e-07 -6.78552e-08 -1 0.999756 245)" stroke="url(#paint2_linear_1_105)" stroke-width="4.75203"/>
<path d="M376.116 246.4C376.116 243.077 376.713 240.091 377.908 237.44C379.102 234.789 380.708 232.661 382.724 231.056C384.74 229.413 386.98 228.181 389.444 227.36C391.908 226.501 394.484 226.072 397.172 226.072C401.465 226.072 405.422 226.931 409.044 228.648V234.864C406.02 232.923 402.361 231.952 398.068 231.952C393.812 231.952 390.172 233.165 387.148 235.592C384.161 238.019 382.668 241.621 382.668 246.4C382.668 249.088 383.116 251.421 384.012 253.4C384.908 255.341 386.121 256.835 387.652 257.88C389.182 258.925 390.788 259.691 392.468 260.176C394.185 260.661 395.996 260.904 397.9 260.904C400.214 260.904 402.174 260.531 403.78 259.784V244.944H409.996V264.096C406.076 265.851 401.913 266.728 397.508 266.728C394.67 266.728 392.02 266.355 389.556 265.608C387.092 264.824 384.833 263.648 382.78 262.08C380.726 260.512 379.102 258.384 377.908 255.696C376.713 253.008 376.116 249.909 376.116 246.4ZM469.137 266H462.753V226.8H478.433C480.375 226.8 482.185 227.005 483.865 227.416C485.583 227.827 487.188 228.499 488.681 229.432C490.175 230.328 491.351 231.597 492.209 233.24C493.068 234.883 493.497 236.824 493.497 239.064C493.497 242.349 492.62 244.944 490.865 246.848C489.111 248.715 486.815 249.984 483.977 250.656L496.521 266H488.849L477.089 251.328H469.137V266ZM469.137 232.624V245.672H478.713C481.103 245.672 483.081 245.168 484.649 244.16C486.217 243.152 487.001 241.491 487.001 239.176C487.001 236.861 486.217 235.2 484.649 234.192C483.081 233.147 481.103 232.624 478.713 232.624H469.137ZM545.095 253.96C544.236 251.571 543.807 249.051 543.807 246.4C543.807 243.749 544.236 241.229 545.095 238.84C545.991 236.451 547.26 234.304 548.903 232.4C550.545 230.459 552.711 228.928 555.399 227.808C558.087 226.651 561.092 226.072 564.415 226.072C567.737 226.072 570.724 226.651 573.375 227.808C576.063 228.928 578.228 230.459 579.871 232.4C581.551 234.304 582.82 236.451 583.679 238.84C584.575 241.229 585.023 243.749 585.023 246.4C585.023 249.051 584.575 251.571 583.679 253.96C582.82 256.349 581.551 258.515 579.871 260.456C578.228 262.36 576.063 263.891 573.375 265.048C570.724 266.168 567.737 266.728 564.415 266.728C561.092 266.728 558.087 266.168 555.399 265.048C552.711 263.891 550.545 262.36 548.903 260.456C547.26 258.515 545.991 256.349 545.095 253.96ZM574.831 256.592C577.295 253.829 578.527 250.432 578.527 246.4C578.527 242.368 577.295 238.971 574.831 236.208C572.404 233.445 568.932 232.064 564.415 232.064C559.935 232.064 556.463 233.445 553.999 236.208C551.535 238.971 550.303 242.368 550.303 246.4C550.303 250.432 551.535 253.829 553.999 256.592C556.463 259.355 559.935 260.736 564.415 260.736C568.932 260.736 572.404 259.355 574.831 256.592ZM663.557 226.8H669.941V251.496C669.941 254.221 669.475 256.611 668.541 258.664C667.645 260.68 666.395 262.267 664.789 263.424C663.221 264.544 661.467 265.384 659.525 265.944C657.621 266.467 655.531 266.728 653.253 266.728C650.976 266.728 648.867 266.467 646.925 265.944C644.984 265.384 643.211 264.544 641.605 263.424C640 262.267 638.731 260.68 637.797 258.664C636.901 256.611 636.453 254.221 636.453 251.496V226.8H642.837V251.16C642.837 257.581 646.309 260.792 653.253 260.792C660.123 260.792 663.557 257.581 663.557 251.16V226.8ZM723.864 226.8H737.864C749.027 226.8 754.608 231.093 754.608 239.68C754.608 248.267 749.027 252.56 737.864 252.56H730.248V266H723.864V226.8ZM745.424 245.224C747.216 244.179 748.112 242.331 748.112 239.68C748.112 237.029 747.216 235.2 745.424 234.192C743.669 233.147 741.261 232.624 738.2 232.624H730.248V246.736H738.2C741.261 246.736 743.669 246.232 745.424 245.224Z" fill="white"/>
<defs>
<linearGradient id="paint0_linear_1_105" x1="335.69" y1="-0.500001" x2="-2.80048e-07" y2="-0.499813" gradientUnits="userSpaceOnUse">
<stop stop-color="#FFC500"/>
<stop offset="1" stop-color="#C31100"/>
</linearGradient>
<linearGradient id="paint1_linear_1_105" x1="335.69" y1="-0.500001" x2="-2.80048e-07" y2="-0.499813" gradientUnits="userSpaceOnUse">
<stop stop-color="#62F11E"/>
<stop offset="1" stop-color="#005F15"/>
</linearGradient>
<linearGradient id="paint2_linear_1_105" x1="330.001" y1="-0.499998" x2="-2.21572e-07" y2="-0.499852" gradientUnits="userSpaceOnUse">
<stop stop-color="#15C0D8"/>
<stop offset="1" stop-color="#231071"/>
</linearGradient>
</defs>
</svg>
