<svg width="563" height="208" viewBox="0 0 563 208" fill="none" xmlns="http://www.w3.org/2000/svg">
<path d="M46.7216 132.651C36.984 132.651 28.4138 131.712 21.011 129.836C13.665 127.959 6.83164 125.627 0.510742 122.84V92.6383H3.41494C9.79278 98.0415 16.8255 102.194 24.5131 105.094C32.2007 107.995 39.6605 109.445 46.8925 109.445C48.7147 109.445 51.1064 109.246 54.0676 108.848C57.0856 108.45 59.5058 107.824 61.328 106.971C63.5489 106.004 65.4281 104.668 66.9656 102.961C68.5031 101.198 69.2719 98.8947 69.2719 96.0509C69.2719 92.8658 68.0191 90.2779 65.5135 88.2872C63.0079 86.2965 60.0183 84.8462 56.5447 83.9362C52.2168 82.7986 47.5758 81.718 42.6216 80.6942C37.7243 79.6704 33.1403 78.4191 28.8694 76.9404C19.0179 73.4709 11.9567 68.807 7.68582 62.9487C3.41494 57.0905 1.2795 49.7534 1.2795 40.9375C1.2795 29.0503 6.31914 19.4382 16.3984 12.1011C26.4777 4.70718 39.0625 1.0102 54.153 1.0102C61.7267 1.0102 69.2434 1.77804 76.7032 3.3137C84.22 4.84937 95.3096 7.55341 101.232 10.1697V39.1013H96.7755C92.049 35.0631 83.5366 31.0979 76.7032 28.3109C69.9268 25.524 62.951 24.1305 55.7759 24.1305C52.9856 24.1305 50.48 24.3296 48.2592 24.7277C46.0383 25.1258 43.7036 25.8937 41.2549 27.0312C39.2618 27.9412 37.525 29.3063 36.0444 31.1263C34.6208 32.8895 33.909 34.8802 33.909 37.0984C33.909 40.3403 35.0479 42.9282 37.3257 44.862C39.6605 46.7389 44.1306 48.4452 50.7363 49.9809C55.0071 50.9478 59.1072 51.8862 63.0364 52.7963C67.0226 53.7063 71.265 54.9576 75.7636 56.5501C84.5901 59.7352 91.1388 64.0294 95.4097 69.4327C99.7375 74.7791 101.901 81.8602 101.901 90.676C101.901 103.303 96.9187 113.455 86.9533 121.133C77.0449 128.812 63.6343 132.651 46.7216 132.651Z" fill="white"/>
<path d="M230.629 66.8732C230.629 87.4056 225.134 103.559 214.143 115.332C203.153 127.105 188.091 132.992 168.958 132.992C149.767 132.992 134.705 127.049 123.772 115.161C112.838 103.217 107.372 87.1213 107.372 66.8732C107.372 46.4545 112.838 30.33 123.772 18.4997C134.705 6.61254 149.767 0.668945 168.958 0.668945C188.091 0.668945 203.153 6.5841 214.143 18.4144C225.134 30.1879 230.629 46.3408 230.629 66.8732ZM197.658 66.7879C197.658 59.2233 196.861 52.7963 195.266 47.5068C193.729 42.1604 191.65 37.7809 189.031 34.3683C186.297 30.8988 183.194 28.4247 179.72 26.9459C176.303 25.4102 172.744 24.6424 169.043 24.6424C165.114 24.6424 161.555 25.3534 158.366 26.7753C155.177 28.1403 152.102 30.6144 149.141 34.1977C146.521 37.4965 144.386 41.876 142.734 47.3361C141.14 52.7963 140.343 59.3086 140.343 66.8732C140.343 74.6653 141.111 81.1492 142.649 86.325C144.186 91.4439 146.293 95.738 148.97 99.2075C151.703 102.734 154.807 105.265 158.28 106.801C161.754 108.279 165.342 109.019 169.043 109.019C172.801 109.019 176.446 108.222 179.976 106.63C183.507 104.98 186.554 102.449 189.116 99.0369C191.85 95.3399 193.956 91.0457 195.437 86.1544C196.918 81.2061 197.658 74.7506 197.658 66.7879Z" fill="white"/>
<path d="M330.998 130.347H246.093V3.3137H278.039V106.118H330.998V130.347Z" fill="white"/>
<path d="M394.125 132.992C377.042 132.992 363.887 128.869 354.662 120.622C345.494 112.374 340.91 100.317 340.91 84.4481V3.3137H372.856V82.5711C372.856 91.387 374.508 97.9562 377.81 102.279C381.17 106.601 386.608 108.763 394.125 108.763C401.471 108.763 406.852 106.687 410.269 102.535C413.743 98.3828 415.48 91.7282 415.48 82.5711V3.3137H447.426V84.3627C447.426 100.004 442.927 112.033 433.93 120.451C424.989 128.812 411.721 132.992 394.125 132.992Z" fill="white"/>
<path d="M507.819 132.651C498.082 132.651 489.512 131.712 482.109 129.836C474.763 127.959 467.929 125.627 461.608 122.84V92.6383H464.513C470.89 98.0415 477.923 102.194 485.611 105.094C493.298 107.995 500.758 109.445 507.99 109.445C509.812 109.445 512.204 109.246 515.165 108.848C518.183 108.45 520.603 107.824 522.426 106.971C524.647 106.004 526.526 104.668 528.063 102.961C529.601 101.198 530.37 98.8947 530.37 96.0509C530.37 92.8658 529.117 90.2779 526.611 88.2872C524.106 86.2965 521.116 84.8462 517.642 83.9362C513.315 82.7986 508.673 81.718 503.719 80.6942C498.822 79.6704 494.238 78.4191 489.967 76.9404C480.116 73.4709 473.054 68.807 468.784 62.9487C464.513 57.0905 462.377 49.7534 462.377 40.9375C462.377 29.0503 467.417 19.4382 477.496 12.1011C487.575 4.70718 500.16 1.0102 515.251 1.0102C522.824 1.0102 530.341 1.77804 537.801 3.3137C545.318 4.84937 554.317 7.55341 560.239 10.1697V38.5487H555.782C551.056 34.5105 544.634 31.0979 537.801 28.3109C531.024 25.524 524.049 24.1305 516.874 24.1305C514.083 24.1305 511.578 24.3296 509.357 24.7277C507.136 25.1258 504.801 25.8937 502.353 27.0312C500.36 27.9412 498.623 29.3063 497.142 31.1263C495.719 32.8895 495.007 34.8802 495.007 37.0984C495.007 40.3403 496.146 42.9282 498.423 44.862C500.758 46.7389 505.228 48.4452 511.834 49.9809C516.105 50.9478 520.205 51.8862 524.134 52.7963C528.12 53.7063 532.363 54.9576 536.861 56.5501C545.688 59.7352 552.236 64.0294 556.507 69.4327C560.835 74.7791 562.999 81.8602 562.999 90.676C562.999 103.303 558.016 113.455 548.051 121.133C538.143 128.812 524.732 132.651 507.819 132.651Z" fill="white"/>
<line y1="-1.7663" x2="245.319" y2="-1.7663" transform="matrix(1 -1.22848e-07 -6.78552e-08 -1 0.998047 195.437)" stroke="url(#paint0_linear_1433_146)" stroke-width="3.5326"/>
<line y1="-1.7663" x2="245.319" y2="-1.7663" transform="matrix(1 -1.22925e-07 -6.7832e-08 -1 0.998047 170.162)" stroke="url(#paint1_linear_1433_146)" stroke-width="3.5326"/>
<line y1="-1.7663" x2="245.319" y2="-1.7663" transform="matrix(1 -1.22848e-07 -6.78552e-08 -1 0.998047 182.799)" stroke="url(#paint2_linear_1433_146)" stroke-width="3.5326"/>
<path d="M289.692 198.701H281.782L293.23 169.561H301.556L313.004 198.701H305.095L303.429 194.122H291.357L289.692 198.701ZM296.644 179.468L293.646 187.878H301.14L298.142 179.468C297.809 178.525 297.56 177.54 297.393 176.513C297.226 177.54 296.977 178.525 296.644 179.468ZM333.768 184.131C333.768 181.522 334.212 179.219 335.1 177.22C336.016 175.194 337.237 173.599 338.764 172.433C340.318 171.267 342.025 170.393 343.884 169.81C345.744 169.228 347.728 168.936 349.837 168.936C352.973 168.936 355.984 169.547 358.871 170.768V178.053C356.623 176.499 353.945 175.722 350.836 175.722C348.255 175.722 346.077 176.429 344.3 177.845C342.552 179.233 341.678 181.328 341.678 184.131C341.678 185.824 341.955 187.281 342.51 188.502C343.093 189.696 343.842 190.584 344.758 191.166C345.702 191.721 346.618 192.124 347.506 192.374C348.394 192.596 349.324 192.707 350.295 192.707C351.072 192.707 351.738 192.637 352.293 192.499V182.674H359.578V197.369C356.442 198.674 353.223 199.326 349.92 199.326C347.783 199.326 345.771 199.021 343.884 198.41C341.997 197.799 340.29 196.897 338.764 195.704C337.237 194.511 336.016 192.929 335.1 190.958C334.212 188.96 333.768 186.684 333.768 184.131ZM385.107 169.561H406.088V176.221H392.808V180.676H404.839V187.295H392.808V192.041H406.338V198.701H385.107V169.561ZM439.316 198.701H431.615V169.561H438.9L450.307 186.296C450.196 185.075 450.14 183.465 450.14 181.467V169.561H457.842V198.701H450.556L439.15 182.008C439.261 183.229 439.316 184.825 439.316 186.795V198.701ZM482.725 184.547C482.725 181.911 483.169 179.566 484.057 177.512C484.945 175.458 486.152 173.821 487.678 172.6C489.205 171.378 490.884 170.463 492.716 169.852C494.547 169.241 496.476 168.936 498.502 168.936C501.555 168.936 504.372 169.547 506.953 170.768V178.053C505.066 176.471 502.693 175.68 499.834 175.68C497.281 175.68 495.102 176.429 493.299 177.928C491.522 179.399 490.634 181.605 490.634 184.547C490.634 187.184 491.522 189.182 493.299 190.542C495.075 191.874 497.226 192.54 499.751 192.54C502.943 192.54 505.413 191.694 507.161 190.001V197.494C504.58 198.715 501.749 199.326 498.669 199.326C496.587 199.326 494.617 199.034 492.757 198.452C490.926 197.869 489.247 197.008 487.72 195.871C486.194 194.705 484.973 193.151 484.057 191.208C483.169 189.265 482.725 187.045 482.725 184.547ZM548.469 198.701H540.809V188.752L529.445 169.561H538.187L544.639 181.592L551.092 169.561H559.834L548.469 188.752V198.701Z" fill="white"/>
<defs>
<linearGradient id="paint0_linear_1433_146" x1="249.548" y1="-0.500001" x2="-2.0822e-07" y2="-0.499897" gradientUnits="userSpaceOnUse">
<stop stop-color="#FFC500"/>
<stop offset="1" stop-color="#C31100"/>
</linearGradient>
<linearGradient id="paint1_linear_1433_146" x1="249.548" y1="-0.500001" x2="-2.0822e-07" y2="-0.499897" gradientUnits="userSpaceOnUse">
<stop stop-color="#62F11E"/>
<stop offset="1" stop-color="#005F15"/>
</linearGradient>
<linearGradient id="paint2_linear_1433_146" x1="245.319" y1="-0.499998" x2="-1.64735e-07" y2="-0.499917" gradientUnits="userSpaceOnUse">
<stop stop-color="#15C0D8"/>
<stop offset="1" stop-color="#231071"/>
</linearGradient>
</defs>
</svg>
