<?xml version="1.0" encoding="iso-8859-1"?>
<!-- Uploaded to: SVG Repo, www.svgrepo.com, Generator: SVG Repo Mixer Tools -->
<svg fill="#000000" height="800px" width="800px" version="1.1" id="Layer_1" xmlns="http://www.w3.org/2000/svg" xmlns:xlink="http://www.w3.org/1999/xlink" 
	 viewBox="0 0 290.903 290.903" xml:space="preserve">
<g>
	<g>
		<g>
			<path d="M290.877,119.339c-0.404-2.384-0.624-4.376-0.836-6.32c-0.248-2.244-0.492-4.424-0.96-7.016
				c-0.124-0.696-0.612-1.276-1.276-1.52c-0.192-0.068-2.024-0.688-4.288-0.672c-12.72,0.084-23.896,6.004-29.168,15.452
				c-2.016,3.608-3.276,8.868-4.5,13.952c-1.644,6.852-3.516,14.468-6.892,15.672c-0.48-23.084-12.068-43.848-30.356-58.56h2.708
				c0.816,0,1.552-0.5,1.848-1.26c0.296-0.76,0.096-1.624-0.5-2.18c-14.912-13.792-34.104-22.42-55.04-25.16
				c0.008-0.2,0.068-0.384,0.068-0.584c0-7.692-6.404-13.952-14.268-13.952s-14.268,6.256-14.268,13.952
				c0,0.188,0.048,0.364,0.056,0.552c-21.036,2.704-40.324,11.348-55.296,25.196c-0.596,0.556-0.796,1.42-0.5,2.18
				c0.296,0.76,1.032,1.26,1.848,1.26h2.704c-8.98,7.224-16.356,15.904-21.584,25.612c-8.108-11.316-19.38-21.564-34.16-21.176
				c-14.22,0.372-23.808,12.112-25.8,25.464c-2.452,16.408,6.248,32.2,17.368,43.604c12.944,13.268,32.424,17.268,44.488,31.256
				c8.164,12.648,20.168,22.656,35.772,29.508c-0.172,0.336-0.796,1.748-0.796,3.44c0,1.4,0.228,2.104,1.128,3.42
				c4.492,6.524,27.968,12.252,50.244,12.252c26.692,0,51-7.436,51-15.604c0-1.428-0.728-2.748-2.044-3.964
				c11.032-5.068,20.44-11.86,27.788-20.012c5.024,2.8,10.476,4.308,16.004,4.308c2.752,0,5.512-0.352,8.236-1.072
				c8.7-2.292,16.324-8.16,20.392-15.688c4.944-9.156,7.128-19.58,6.676-31.876l-0.164-3.884c-0.404-9.06-0.82-18.428,2.328-26.916
				c1.416-3.82,5.804-7.74,9.86-7.352c0.632,0.08,1.236-0.16,1.664-0.616C290.785,120.583,290.977,119.955,290.877,119.339z
				 M147.409,51.151c5.68,0,10.3,4.48,10.3,9.984c0,0.02-0.008,0.04-0.008,0.064c-0.872-0.084-1.76-0.108-2.64-0.168
				c-0.06-4.084-3.464-7.392-7.652-7.392c-4.188,0-7.588,3.3-7.656,7.38c-0.88,0.06-1.768,0.064-2.64,0.144
				c0-0.008-0.004-0.02-0.004-0.028C137.109,55.627,141.729,51.151,147.409,51.151z M152.765,60.923
				c-1.828-0.092-3.64-0.24-5.488-0.24c-1.764,0-3.5,0.148-5.248,0.232c0.12-2.78,2.48-5.012,5.38-5.012
				C150.309,55.903,152.645,58.143,152.765,60.923z M147.277,64.651c23.604,0,45.676,7.668,62.736,21.7H84.545
				C101.601,72.323,123.673,64.651,147.277,64.651z M101.385,135.547c0.84,0.812,1.936,1.256,3.1,1.256c0.024,0,0.048,0,0.076,0
				c1.192-0.016,2.3-0.5,3.132-1.356c0.824-0.856,1.268-1.98,1.248-3.168c-0.016-1.188-0.496-2.304-1.352-3.132
				c-0.556-0.54-1.244-0.94-1.972-1.136v-4.692c6.596,6.324,12.992,13.276,13.296,15.12l0.572,35.364
				c0.044,2.732-2.14,4.988-4.872,5.032l-18.94,0.304c-1.304-0.016-2.568-0.476-3.524-1.4c-0.952-0.924-1.488-2.156-1.508-3.472
				l-0.576-35.308c0.256-1.948,6.724-9.424,13.284-16.088v5.248c-0.772,0.208-1.496,0.54-2.064,1.128
				c-0.828,0.856-1.272,1.984-1.252,3.172C100.049,133.607,100.529,134.719,101.385,135.547z M106.009,130.771
				c0.416,0.408,0.656,0.952,0.664,1.54c0.008,0.584-0.212,1.136-0.616,1.556c-0.404,0.42-0.952,0.66-1.54,0.668
				c-0.632-0.024-1.136-0.212-1.56-0.62c-0.416-0.408-0.656-0.952-0.664-1.536c-0.008-0.584,0.212-1.14,0.616-1.56
				c0.128-0.132,0.288-0.208,0.436-0.304v1.212h2.268v-1.212C105.749,130.599,105.893,130.659,106.009,130.771z M37.477,173.583
				c-12.888-7.096-23.928-17.744-29.808-31.416c-5.78-13.444-5.476-33.504,9.456-41.152c16.62-8.512,32.556,6.24,41.212,18.984
				c-1.04,2.244-1.96,4.544-2.772,6.88c-6.708-9.892-19.588-22.5-30.34-21.7c-5.772,0.388-10.052,4.416-12.72,11.976
				c-9.168,25.98,13.316,40.712,37.12,56.308c1.42,0.932,2.848,1.872,4.276,2.816c0.784,2.916,1.752,5.76,2.916,8.512
				C50.829,180.463,44.109,177.235,37.477,173.583z M53.117,173.047c-0.752-0.492-1.504-0.992-2.248-1.48
				c-23.04-15.096-44.8-29.356-36.224-53.66c2.336-6.624,5.944-10.148,10.732-10.468c9.724-0.604,22.844,11.844,29.296,22.196
				c-2.012,6.624-3.112,13.564-3.112,20.724v8.148C51.557,163.523,52.109,168.375,53.117,173.047z M148.609,239.699
				c-28.364,0-47.024-8.1-47.132-10.892c-0.176-1,0.168-2.036,0.576-2.568c13.112,5.088,28.792,8.18,45.224,8.18
				c17.032,0,32.624-3.02,46.064-8.468c1.728,0.992,2.272,1.796,2.272,2.144C195.609,231.539,177.369,239.699,148.609,239.699z
				 M193.441,221.551c-0.152-0.068-0.636,0.292-0.636,0.292c-13.192,5.52-28.612,8.608-45.528,8.608
				c-53.164,0-91.752-30.256-91.752-71.944v-8.148c0-6.412,0.92-12.644,2.632-18.612l0.264-0.136c-0.04-0.08-0.096-0.172-0.14-0.252
				c4.784-16.296,15.568-30.568,30.22-41.04h14.844l0.104,27.356c0,0-17.448,17.22-17.384,21.292l0.572,35.36
				c0.036,2.384,1.004,4.612,2.728,6.28c1.688,1.636,3.892,2.528,6.22,2.528c0.052,0,0.1,0,0.148,0l18.94-0.304
				c2.388-0.04,4.616-1.008,6.28-2.732c1.668-1.724,2.568-3.984,2.528-6.368l-0.572-35.364
				c-0.068-4.056-10.824-14.584-17.296-20.556V90.315h100.432c20.128,14.38,32.988,35.936,32.988,60.04v8.148
				C239.033,186.711,221.329,209.643,193.441,221.551z M275.073,127.599c-3.428,9.248-2.996,19.028-2.576,28.484l0.16,3.856
				c0.424,11.564-1.596,21.32-6.192,29.824c-3.556,6.58-10.244,11.708-17.896,13.724c-6.932,1.828-14.156,0.94-20.6-2.44
				c9.592-11.908,15.028-26.408,15.028-42.54v-5.52c6.372-0.9,8.608-9.98,10.736-18.84c1.156-4.824,2.356-9.808,4.1-12.936
				c4.572-8.188,14.416-13.324,25.7-13.4c0.84,0,1.332,0.072,1.82,0.164c0.316,1.96,0.508,3.704,0.708,5.488
				c0.152,1.36,0.304,2.748,0.516,4.26C281.389,118.479,276.757,123.047,275.073,127.599z"/>
			<path d="M99.133,141.331c-0.28,0.416-6.876,10.284-4.236,19.652c2.644,9.368,13.424,14.336,13.88,14.544l0.652,0.296l0.404-0.592
				c0.28-0.416,6.876-10.28,4.236-19.652c-2.644-9.368-13.42-14.336-13.88-14.544l-0.652-0.296L99.133,141.331z M109.409,172.607
				l-1.124-3.976l2.62,0.828C110.385,170.711,109.853,171.799,109.409,172.607z M111.509,167.863l-3.776-1.196l-0.692-2.448
				l5.096,1.612C111.949,166.543,111.741,167.215,111.509,167.863z M112.561,164.183l-6.068-1.92l-0.876-3.104l7.308,1.96
				C112.873,162.159,112.757,163.191,112.561,164.183z M112.921,159.355l-7.844-2.104l-0.944-3.352l8.368,2.568
				C112.741,157.427,112.873,158.391,112.921,159.355z M109.769,150.823c0.824,1.108,1.5,2.34,2.048,3.656l-8.232-2.524
				l-0.852-3.012L109.769,150.823z M107.789,148.531l-5.592-1.496l-1-3.552C102.857,144.435,105.449,146.151,107.789,148.531z
				 M106.317,167.923l-0.024,0.076l0.052,0.016l1.428,5.056c-3.076-1.764-9.412-6.08-11.232-12.552
				c-1.828-6.468,1.316-13.456,3.016-16.568L106.317,167.923z"/>
		</g>
	</g>
</g>
</svg>