<?xml version="1.0" encoding="iso-8859-1"?>
<!-- Uploaded to: SVG Repo, www.svgrepo.com, Generator: SVG Repo Mixer Tools -->
<svg fill="#000000" height="800px" width="800px" version="1.1" id="Layer_1" xmlns="http://www.w3.org/2000/svg" xmlns:xlink="http://www.w3.org/1999/xlink" 
	 viewBox="0 0 287.992 287.992" xml:space="preserve">
<g>
	<g>
		<g>
			<path d="M287.656,171.224l-12.772-55.848c-1.412-6.164-24.6-20.52-33.016-25.556c-1.716-6.212-4.256-13.908-8.14-23.856
				c-4.268-10.932-13.536-20.168-24.792-24.692c-5.852-2.352-12.192-3.128-17.06-3.544c-11.772-1-21.168-0.272-29.528,2.304
				c-10.508,3.24-18.944,9.52-23.756,17.68c-1.744,2.96-2.952,6.116-3.86,9.352h-35.32l-38.9,35.832v102.056
				c-2.44-2.792-5.096-5.448-8.02-7.86c-22.196-18.3-49.74-15.248-50.912-15.116L0,182.164l0.368,1.548
				c0.324,1.356,8.152,33.384,30.248,51.6c16.392,13.508,35.696,15.384,45.144,15.384c3.352,0,5.46-0.236,5.764-0.272l1.312-0.156
				l0.028,0.056l0.164-0.08l0.076-0.008l-0.004-0.024l1.06-0.524c0.32-0.156,2.8-1.424,6.284-3.796h93.024
				c11.36,0,20.596-8.58,20.596-19.128V101.116l-41.288-34.052h-25.104c0.824-2.752,1.888-5.42,3.356-7.912
				c4.448-7.552,12.316-13.38,22.148-16.416c8-2.464,17.036-3.164,28.448-2.188c4.672,0.4,10.744,1.136,16.248,3.348
				c10.544,4.24,19.22,12.872,23.208,23.092c3.572,9.144,5.98,16.336,7.664,22.224l-0.456,0.688
				c-4.872,7.352-20.644,31.848-19.184,38.224l12.772,55.852c1.408,6.136,6.884,10.308,12.928,10.308
				c0.976,0,1.968-0.108,2.956-0.336l29.916-6.84C284.816,185.48,289.288,178.352,287.656,171.224z M4.372,187.388l12.808,10.56
				l-8.024,2.192C6.9,194.968,5.336,190.472,4.372,187.388z M9.848,201.708l8.936-2.44l9.048,7.46l-13.576,3.708
				C12.584,207.444,11.112,204.5,9.848,201.708z M15.12,211.96l14.316-3.912l10.56,8.704l-17.624,5.944
				C19.628,219.216,17.22,215.58,15.12,211.96z M23.508,224.112l18.036-6.08l11.208,9.24l-20.368,5.82
				C29.108,230.388,26.168,227.332,23.508,224.112z M34.064,234.38l20.28-5.796l10.344,8.528l-16.192,5.46
				C43.664,240.628,38.752,237.972,34.064,234.38z M50.988,243.532l15.248-5.144l11.428,9.424
				C72.472,247.936,62.168,247.524,50.988,243.532z M20.564,197.06l-0.008-0.036l-0.028,0.008L5.448,184.6
				c8.052-0.192,28.48,0.864,45.24,14.684c16.688,13.756,25.12,36.352,28.052,45.74L20.564,197.06z M81.46,181.816
				c1.568-3.108,3.368-5.964,5.3-8.556l11.188,14.916l-2.752,10.444L81.46,181.816z M94.664,200.656l-3.476,13.176L76.88,195.079
				c0.208-1.052,0.416-2.104,0.688-3.144c0.792-2.996,1.844-5.8,3.064-8.44L94.664,200.656z M87.84,171.864
				c1.704-2.152,3.468-4.136,5.24-5.904l7.944,10.588l-2.516,9.536L87.84,171.864z M94.316,164.776
				c4.84-4.612,9.472-7.788,12.324-9.54l-5.068,19.216L94.316,164.776z M76.608,185.744v-31.152
				c7.592-1.168,15.312-1.384,22.956-0.648c1.064,0.104,2.064,0.292,3.1,0.436C95.348,159.24,82.772,169.512,76.608,185.744z
				 M90.64,215.912l-2.888,10.948l-11.864-14.512c-0.32-4.908-0.2-9.98,0.584-15L90.64,215.912z M83.228,244.02
				c-2.148-5.476-5.84-16.328-7.084-28.664L87.216,228.9L83.228,244.02z M85.768,245.508l23.412-88.784
				c3.468,8.836,11.028,31.72,5.66,52.084C109.46,229.208,92.54,241.352,85.768,245.508z M112.036,156.188
				c13.028,3.376,24.024,9.552,34.264,15.78c12.768,7.768,27.576,16.12,42.284,17.376v29.516c0,5.584-6.328,10.124-14.1,10.124
				h-66.368c3.968-5.392,7.456-11.836,9.464-19.452C123.124,188.508,115.74,165.636,112.036,156.188z M164.78,73.86l35.32,29.128
				v123.776c0,8.356-7.46,15.16-16.628,15.16H95.768c3.408-2.78,7.14-6.34,10.628-10.672h68.088c9.028,0,16.368-5.56,16.368-12.396
				V187.22l-1.064-0.064c-14.544-0.9-29.464-9.312-42.308-17.128c-10.808-6.576-22.476-13.068-36.48-16.408
				c-0.456-1.068-0.764-1.74-0.844-1.904l-0.616-1.304l-1.292,0.64c-0.188,0.092-1.16,0.588-2.616,1.452
				c-1.912-0.324-3.84-0.624-5.844-0.82c-8.152-0.788-16.396-0.512-24.492,0.82l-0.948,0.156v40.804
				c-1.312,5.972-1.696,12.048-1.412,17.888L72.9,211.38l0.04,0.048c0.3,6.052,1.264,11.82,2.456,16.968
				c-2.732-5.888-6.328-12.36-10.912-18.504V104.636L99.068,72.78l11.468,25.692h42.824L164.78,73.86z M161.36,71.036l1.164,0.96
				l-10.976,23.636h-39.176l-10.98-24.596h32.388c-0.72,3.62-1.124,7.284-1.376,10.88h-8.448v2.268h8.3
				c-0.08,1.38-0.148,2.744-0.212,4.084l2.828,0.136c0.068-1.384,0.14-2.796,0.224-4.22h6.36v-2.268h-6.212
				c0.26-3.616,0.676-7.288,1.432-10.88H161.36z M242.932,111.496l0.044,0.412l2.82-0.28l-0.04-0.412
				c-0.112-1.136-0.232-2.316-0.372-3.56c0.44,0.108,0.868,0.264,1.264,0.512c0.96,0.604,1.628,1.544,1.884,2.656
				c0.252,1.104,0.06,2.244-0.544,3.208c-0.604,0.96-1.548,1.632-2.656,1.884c-1.096,0.248-2.244,0.06-3.208-0.544
				c-0.96-0.604-1.628-1.544-1.884-2.656c-0.252-1.104-0.064-2.244,0.544-3.208c0.432-0.684,1.072-1.152,1.784-1.496
				C242.708,109.228,242.82,110.384,242.932,111.496z M276.792,183.216l-29.916,6.84c-4.956,1.136-9.956-1.984-11.096-6.964
				l-12.772-55.852c-0.696-3.044,8.092-18.932,17.12-32.832c1.1,4.488,1.728,8.104,2.148,11.228
				c-1.404,0.48-2.612,1.392-3.412,2.668c-0.924,1.476-1.22,3.224-0.832,4.92c0.392,1.696,1.416,3.144,2.892,4.068
				c1.052,0.66,2.24,1,3.448,1c0.488,0,0.98-0.056,1.468-0.168c1.696-0.388,3.14-1.416,4.068-2.888
				c0.928-1.476,1.224-3.224,0.836-4.92c-0.392-1.696-1.416-3.144-2.892-4.068c-0.848-0.532-1.788-0.828-2.756-0.932
				c-0.376-2.84-0.916-6.06-1.82-9.96c13.54,8.34,27.04,18.008,27.708,20.912l12.772,55.848
				C284.896,177.096,281.772,182.076,276.792,183.216z"/>
			<path d="M259.96,137.124v-0.028h-0.036c-8.308-7.06-18.952-9.48-19.544-9.608l-0.7-0.156l-0.272,0.664
				c-0.3,0.744-7.356,18.376-0.132,32.124c7.224,13.752,25.74,17.948,26.524,18.12l0.7,0.156l0.272-0.664
				c0.3-0.744,7.356-18.372,0.132-32.12C265.128,142.232,262.668,139.432,259.96,137.124z M264.572,145.012l-15.364-1.368
				l-2.924-5.564l12.924,0.684C261.244,140.54,263.096,142.616,264.572,145.012z M256.912,136.936l-11.548-0.612l-3.508-6.68
				C244.9,130.54,251.232,132.76,256.912,136.936z M240.784,159.332c-5.568-10.6-2.004-24.104-0.432-28.892l3.884,7.396
				l-0.008,0.132l0.08,0.004l15.024,28.608l-0.052,0.552l0.364,0.036l4.684,8.916C259.496,174.66,246.352,169.932,240.784,159.332z
				 M265.832,175.288l-4.16-7.924l5.988,0.588C267.104,171.096,266.36,173.68,265.832,175.288z M267.932,166.272l-7.208-0.708
				l-2.504-4.768l10.132,0.992C268.28,163.348,268.136,164.856,267.932,166.272z M268.404,160.092L257.272,159l-2.992-5.696
				l13.62,0.724C268.252,156.064,268.416,158.108,268.404,160.092z M253.36,151.552l-3.212-6.116l15.436,1.376
				c0.888,1.772,1.52,3.62,1.96,5.492L253.36,151.552z"/>
		</g>
	</g>
</g>
</svg>