<?xml version="1.0" encoding="iso-8859-1"?>
<!-- Uploaded to: SVG Repo, www.svgrepo.com, Generator: SVG Repo Mixer Tools -->
<svg fill="#000000" height="800px" width="800px" version="1.1" id="Layer_1" xmlns="http://www.w3.org/2000/svg" xmlns:xlink="http://www.w3.org/1999/xlink" 
	 viewBox="0 0 310.508 310.508" xml:space="preserve">
<g>
	<g>
		<g>
			<path d="M240.616,19.576h-4.956l-8.488-17.684c-0.552-1.156-1.72-1.892-3-1.892H86.344c-1.28,0-2.448,0.732-3,1.892l-4.772,9.936
				c-0.796,1.656-0.1,3.648,1.56,4.444c1.652,0.8,3.652,0.096,4.444-1.56l3.864-8.048h133.636l6.2,12.912h-71.84h-86.54
				c-6.588,0-11.944,5.36-11.944,11.948c0,6.056,4.548,11.02,10.396,11.784l27.996,264.216c0.18,1.7,1.608,2.984,3.312,2.984h115.9
				c1.724,0,3.164-1.324,3.316-3.04l23.324-264.16c5.832-0.784,10.36-5.744,10.36-11.784C252.56,24.936,247.2,19.576,240.616,19.576
				z M75.06,43.468h43.016v39.716c-3.988,3.92-10.728,10.768-16.252,17.392L81.1,100.472L75.06,43.468z M120.464,90.2
				c10.716,10.308,21.628,22.432,22.064,25.484v43.504c0,4.416-3.588,8-8.004,8h-27.06c-4.412,0-8.004-3.588-8.004-8l-0.004-43.444
				C99.828,112.656,110.216,100.54,120.464,90.2z M212.508,303.844H102.652l-8.124-76.672l124.808-0.656L212.508,303.844z
				 M230.396,101.232l-81.492-0.288h-0.008c-1.284,0-2.328,1.036-2.332,2.32c-0.004,1.288,1.036,2.336,2.32,2.34l30.636,0.108
				l-5.128,107.416c-0.064,1.284,0.932,2.376,2.22,2.436c0.04,0.004,0.076,0.004,0.112,0.004c1.236,0,2.268-0.976,2.328-2.224
				l5.136-107.616l45.8,0.16l-10.24,115.96l-20.596,0.108c0.008-0.04,0.032-0.068,0.036-0.108l12.42-107.164
				c0.148-1.276-0.768-2.428-2.048-2.58c-1.288-0.12-2.436,0.768-2.584,2.048l-12.42,107.16c-0.028,0.232,0.016,0.448,0.056,0.668
				l-35.476,0.184l-1.04-109.112c-0.012-1.28-1.052-2.308-2.332-2.308h-0.02c-1.288,0.016-2.32,1.064-2.308,2.352l1.04,109.092
				l-13.724,0.072c0.268-0.42,0.436-0.916,0.384-1.452l-3.72-39.352c-0.12-1.284-1.248-2.184-2.54-2.1
				c-1.28,0.124-2.22,1.256-2.1,2.54l3.72,39.352c0.036,0.388,0.192,0.728,0.392,1.032l-19.692,0.104
				c0.328-0.456,0.512-1.016,0.444-1.616l-4.308-38.18c-0.14-1.276-1.276-2.184-2.58-2.056c-1.276,0.148-2.196,1.3-2.056,2.58
				l4.308,38.176c0.048,0.428,0.24,0.792,0.48,1.112l-19.448,0.1l-12.44-117.368l16.556,0.088C95,109.46,92.8,113.268,92.8,115.684
				v43.504c0,8.084,6.58,14.664,14.664,14.664h27.06c8.084,0,14.664-6.58,14.664-14.664v-43.504
				c0-6.668-16.544-23.208-26.448-32.508V43.464H235.5L230.396,101.232z M240.616,36.804H69.896c-2.912,0-5.284-2.368-5.284-5.28
				c0-2.916,2.372-5.288,5.284-5.288h86.536h77.136h7.048c2.912,0,5.284,2.372,5.284,5.288
				C245.9,34.436,243.528,36.804,240.616,36.804z"/>
			<path d="M184.14,291.496h20.256c1.288,0,2.332-1.04,2.332-2.332s-1.044-2.332-2.332-2.332H184.14
				c-1.288,0-2.332,1.04-2.332,2.332S182.852,291.496,184.14,291.496z"/>
			<path d="M160.556,291.496h16.404c1.288,0,2.332-1.04,2.332-2.332s-1.044-2.332-2.332-2.332h-16.404
				c-1.288,0-2.332,1.04-2.332,2.332S159.268,291.496,160.556,291.496z"/>
			<path d="M108.076,291.496h42.644c1.288,0,2.332-1.04,2.332-2.332s-1.048-2.332-2.332-2.332h-42.644
				c-1.288,0-2.332,1.04-2.332,2.332S106.788,291.496,108.076,291.496z"/>
			<path d="M120.996,117.644c4.2,0,7.616-3.42,7.616-7.62c0-4.196-3.416-7.616-7.616-7.616c-4.2,0-7.616,3.42-7.616,7.616
				C113.38,114.228,116.796,117.644,120.996,117.644z M120.996,107.072c1.628,0,2.956,1.324,2.956,2.956
				c0,1.628-1.324,2.956-2.956,2.956c-1.628,0-2.956-1.328-2.956-2.956S119.368,107.072,120.996,107.072z"/>
		</g>
	</g>
</g>
</svg>