<?xml version="1.0" encoding="iso-8859-1"?>
<!-- Uploaded to: SVG Repo, www.svgrepo.com, Generator: SVG Repo Mixer Tools -->
<svg fill="#000000" height="800px" width="800px" version="1.1" id="Layer_1" xmlns="http://www.w3.org/2000/svg" xmlns:xlink="http://www.w3.org/1999/xlink" 
	 viewBox="0 0 246.093 246.093" xml:space="preserve">
<g>
	<g>
		<g>
			<path d="M231.36,99.802c-13.976-4.912-26.74,4.416-36.852,13.18l-0.148-1.964c-0.016,0.028-0.052,0.028-0.072,0.056
				c-0.4-14.44-33.204-24.108-71.052-27.16c2.404-3.396,5.568-6.54,9.516-9.452c2.044-1.504,3.864-3.252,5.84-5.148
				c4.528-4.344,7.004-9.868,7.364-16.424c1.084-19.924-11.76-36.536-34.356-44.436l-6.076-2.124l4.616,4.48
				c0.624,0.604,1.224,1.164,1.8,1.704c1.124,1.052,2.152,2.008,3.076,3.048c11.876,13.392,13.236,33.884,3.16,47.664
				c-4.496,6.148-6.872,12.828-7.28,19.944c-4.444-0.184-8.908-0.308-13.368-0.308c-0.304,0-0.612,0.012-0.916,0.016
				c0.008-0.008,0.016-0.016,0.028-0.024c9.488-8.304,12.844-18.276,9.964-29.636C103.696,41.75,89.864,31.25,74.86,27.702
				l-7.328-1.396l6.304,3.988c11.16,7.06,11.452,15.86,10.268,23.54c-1.108,7.22-4.604,14.1-10.684,21.028
				c-2.148,2.452-4.552,5.596-5.7,9.4C31.364,87.678,0.64,97.258,0.64,111.334c0,0.068,0.016,0.136,0.016,0.208l-0.308,4.088
				C0.112,118.742,0,121.51,0,124.086c0,39.48,20.684,73.9,51.084,91.552c-3.388,1.924-5.204,4.124-5.204,6.584
				c0,9.18,25.1,17.54,52.668,17.54c19.728,0,38.156-4.288,47.056-10.088c1.708,1.556,3.872,2.424,6.172,2.424
				c0.052,0,0.1,0,0.148,0l19.584-0.316c5.068-0.084,9.12-4.272,9.044-9.336l-0.588-36.564c-0.012-0.612-0.292-1.392-0.74-2.268
				c12.892-9.016,30.764-11.768,43.696-21.048c11.404-8.184,21.448-20.524,22.984-34.92
				C247.092,116.522,242.72,103.794,231.36,99.802z M194.984,126.066c4.448-3.848,12.088-10.416,16.568-12.984
				c7.4-4.244,13.54-4.752,17.756-1.464c5.26,4.108,6.604,13.44,4.832,19.736c-1.864,6.596-7.168,13.764-14.18,19.18
				c-7.036,5.428-14.26,9.568-21.488,12.292l-1.78,0.664c-3.792,1.412-7.612,2.92-11.016,4.928
				C191.404,155.522,194.716,141.198,194.984,126.066z M191.004,121.142c0.036,1.016,0.052,1.992,0.052,2.94
				c0,2-0.104,3.976-0.212,5.948c-3.22,9.856-15.896,14.488-28.428,16.892v-14.084C175.576,129.666,185.752,125.622,191.004,121.142
				z M162.416,179.006v-1.364c0.16,0.092,0.332,0.172,0.468,0.308c0.44,0.428,0.692,1,0.704,1.616c0.016,1.268-1,2.32-2.268,2.34
				c-0.568-0.044-1.196-0.22-1.636-0.648c-0.44-0.428-0.692-1-0.704-1.62c-0.008-0.612,0.224-1.196,0.648-1.636
				c0.152-0.156,0.34-0.256,0.524-0.364v1.368H162.416z M83.928,111.978c-0.588-3.3-0.964-6.692-0.588-10
				c4.752-0.18,9.616-0.312,14.744-0.312c5.584,0,10.928,0.128,16.096,0.328c0.108,0.24,0.204,0.48,0.32,0.72l3.08,6.652
				l-0.08-6.652c-0.004-0.2,0.028-0.388,0.028-0.588c40.78,1.952,67.012,9.864,67.012,17.324h0.016
				c-7.196,5.124-20.9,9.788-39.496,12.816c-0.744,0.112-1.452,0.236-2.208,0.352c-1.016,0.156-2.088,0.288-3.132,0.432
				c-1.856,0.252-3.7,0.512-5.636,0.736c-0.036,0.004-0.076,0.008-0.112,0.012c-8.196,0.94-17.104,1.6-26.612,1.872
				c-3.216,0.088-6.5,0.14-9.852,0.14c-1.728,0-3.392-0.048-5.088-0.072c-1.56-0.024-3.148-0.024-4.676-0.068
				c-12.448-0.352-23.848-1.376-33.988-2.824c-0.332-0.048-0.684-0.092-1.012-0.14c-1.372-0.2-2.664-0.428-3.988-0.644
				c-16.864-2.84-29.64-7.024-36.976-11.668c1.552-7.396,24.272-14.988,59.532-17.62c2.988,4.752,7.024,8.696,10.508,11.72
				l3.064,2.656L83.928,111.978z M190.312,111.334c0,2.2-1.3,4.428-3.764,6.6c-2.924-9.82-34.116-16.268-68.924-18.044
				c0.292-4.376,1.38-8.436,3.328-12.196C163.228,90.646,190.312,101.274,190.312,111.334z M120.468,64.894
				c10.776-14.744,9.428-36.588-3.1-50.956c10.696,5.22,26.952,16.832,25.76,38.796c-0.324,5.896-2.448,10.652-6.716,14.744
				c-1.696,1.624-3.444,3.308-5.34,4.704c-9.116,6.724-14.372,14.604-15.924,23.952C111.876,84.502,113.628,74.246,120.468,64.894z
				 M97.536,86.858c4.596,0.004,9.004,0.128,13.328,0.3c0.196,4.048,1.028,8.228,2.488,12.536c-5.06-0.2-10.176-0.308-15.268-0.308
				c-4.796,0-9.584,0.14-14.348,0.324c0.464-1.972,1.228-3.9,2.5-5.736c1.56-2.26,3.56-4.564,6.024-7.016
				C94.004,86.914,95.728,86.858,97.536,86.858z M69.892,88.098c0.192-3.616,1.936-7.12,5.668-11.368
				C82,69.382,85.716,62.034,86.916,54.262c1.024-6.652,1.08-14.8-5.952-21.924c11.196,4.128,20.668,12.78,22.896,21.572
				c2.632,10.388-0.34,19.156-9.084,26.808c-4.884,4.272-8.34,7.972-10.88,11.644c-3.8,5.508-3.98,11.476-3.208,17.256
				C72.868,102.106,69.512,95.362,69.892,88.098z M67.076,88.25c-0.176,4.484,1.004,8.556,2.896,12.204
				c-30.608,2.496-56.644,9.004-60.168,18.528c-3.3-2.5-5.14-5.088-5.14-7.644C4.66,101.838,28.8,91.826,67.076,88.25z
				 M49.884,222.222c0.004-0.832,5.232-4.388,5.232-4.388c1.488,0.804,1.508,0.764,3.036,1.488l-7.056,5.064
				C50.328,223.606,49.884,222.87,49.884,222.222z M52.928,225.862l7.596-5.456c1.6,0.708,3.224,1.364,4.868,1.976l-8.156,5.856
				C55.508,227.442,54.068,226.646,52.928,225.862z M59.672,229.274l8.3-5.956c1.756,0.596,3.524,1.152,5.32,1.644l-8.5,6.1
				C62.928,230.486,61.22,229.89,59.672,229.274z M67.552,231.874l8.632-6.196c1.948,0.468,3.916,0.884,5.904,1.224l-8.812,6.328
				C71.268,232.81,69.344,232.358,67.552,231.874z M98.56,235.766c-8.16-0.004-15.652-0.768-22.216-1.944l8.708-6.252l-0.184-0.256
				c2.336,0.324,4.688,0.58,7.072,0.724l-6.376,4.58l1.32,1.844l8.76-6.292c0.632,0.012,1.256,0.052,1.888,0.052
				c1.924,0,3.828-0.076,5.724-0.196l-4.708,3.08l1.244,1.9l8.312-5.436c12.288-1.424,23.892-5.292,34.388-11.144l0.108,6.632
				c0.02,1.176,0.272,2.312,0.712,3.368C136.112,230.854,119.448,235.766,98.56,235.766z M142.012,186.498l0.408,25.34
				c-13.34,7.856-28.616,12.388-44.884,12.388c-48.656-0.004-88.732-39.992-93.112-90.884c3.612,4.836,10.156,7.576,13.836,9.104
				l0.868-2.092c-5.016-2.084-14.352-5.968-14.98-13.652l-0.076,0.008c-0.02-0.876-0.064-1.744-0.064-2.624
				c0-0.948,0.016-1.924,0.052-2.94c8.736,7.444,31.012,13.696,58.16,16.712c0.144,0.016,0.288,0.032,0.432,0.048
				c2.064,0.228,4.144,0.436,6.26,0.624c1.356,0.124,2.716,0.236,4.084,0.34c0.656,0.048,1.308,0.104,1.972,0.152
				c2.056,0.144,4.128,0.264,6.208,0.368c0.512,0.024,1.02,0.052,1.536,0.072c2.2,0.1,4.408,0.18,6.616,0.236
				c0.344,0.008,0.692,0.012,1.036,0.02c2.376,0.052,4.752,0.088,7.124,0.088c0.008,0,0.02,0,0.028,0c0.004,0,0.012,0,0.016,0
				c0.02,0,0.04,0,0.06,0c2.296,0,4.596-0.032,6.892-0.084c0.46-0.012,0.92-0.016,1.376-0.028c2.052-0.052,4.1-0.128,6.14-0.22
				c0.76-0.032,1.52-0.072,2.276-0.108c1.74-0.092,3.476-0.192,5.204-0.308c1.204-0.08,2.392-0.176,3.584-0.268
				c0.664-0.052,1.328-0.108,1.988-0.164c12.836-1.096,24.808-2.904,35.096-5.248v13.984c-6.568,1.128-12.932,1.684-17.7,2.1
				c-1.416,0.124-2.704,0.236-3.828,0.348c-32.512,3.236-67.236,5.048-100.904-3.44l-0.556,2.2
				c18.24,4.596,36.756,6.204,55.052,6.204c15.816,0,31.468-1.2,46.64-2.708c1.116-0.112,2.392-0.224,3.796-0.344
				c4.736-0.412,10.996-0.972,17.504-2.072v14.116l-0.888,0.872C154.052,169.762,141.936,182.154,142.012,186.498z M171.452,227.782
				l-19.584,0.316c-1.272-0.028-2.688-0.5-3.688-1.468c-1-0.968-1.564-2.26-1.584-3.64l-0.588-36.516
				c0.244-2.044,7.204-10.056,14.144-17.072v5.86c-0.804,0.208-1.56,0.552-2.152,1.16c-0.848,0.88-1.304,2.032-1.284,3.256
				c0.02,1.22,0.512,2.36,1.392,3.208c0.86,0.832,1.984,1.288,3.176,1.288c0.028,0,0.052,0,0.08,0
				c2.516-0.04,4.536-2.124,4.496-4.64v-0.004c-0.02-1.22-0.512-2.36-1.392-3.208c-0.576-0.56-1.292-0.884-2.048-1.08v-5.684
				c6.772,6.512,13.26,14.504,13.552,16.388l0.588,36.564C176.604,225.37,174.312,227.734,171.452,227.782z M175.788,178.686
				c-4.004-4.86-9.912-10.524-13.372-13.728v-15.724c11.068-2.084,22.376-5.912,27.936-13.476
				C188.628,151.462,183.512,166.05,175.788,178.686z M230.72,150.31c-9.076,10.176-21.488,16.436-34.048,21.208
				c-5.492,2.088-10.904,3.964-15.912,6.616c1.04-1.816,2.012-3.68,2.948-5.568c3.792-3.128,8.816-5.108,13.776-6.952l1.784-0.668
				c7.436-2.804,14.868-7.048,22.076-12.616c7.388-5.704,12.988-13.312,14.976-20.36c2.02-7.156,0.468-17.392-5.616-22.14
				c-3.488-2.72-9.836-4.712-20.276,1.28c-4.172,2.392-10.808,7.968-15.392,11.916c-0.02-1.636-0.088-3.38-0.196-5.216
				c0.212-0.084,0.424-0.184,0.624-0.36c10.744-9.492,32.24-24.888,43.344-6.596C246.648,123.778,239.784,140.146,230.72,150.31z"/>
			<path d="M22.212,143.998c3.508,1.26,7.084,2.408,10.624,3.408l0.616-2.184c-3.492-0.984-7.016-2.112-10.476-3.356L22.212,143.998
				z"/>
		</g>
	</g>
</g>
</svg>