<?xml version="1.0" encoding="iso-8859-1"?>
<!-- Uploaded to: SVG Repo, www.svgrepo.com, Generator: SVG Repo Mixer Tools -->
<!DOCTYPE svg PUBLIC "-//W3C//DTD SVG 1.1//EN" "http://www.w3.org/Graphics/SVG/1.1/DTD/svg11.dtd">
<svg fill="#000000" height="800px" width="800px" version="1.1" id="Capa_1" xmlns="http://www.w3.org/2000/svg" xmlns:xlink="http://www.w3.org/1999/xlink" 
	 viewBox="0 0 401.652 401.652" xml:space="preserve">
<g>
	<path d="M299.647,139.622c-2.235,10.048-7.248,19.05-14.496,26.032c-1.989,1.916-2.048,5.082-0.132,7.07
		c0.981,1.019,2.291,1.531,3.602,1.531c1.249,0,2.499-0.465,3.468-1.399c8.667-8.35,14.656-19.091,17.32-31.063
		c1.957-8.794,0.904-17.302-3.043-24.604c-1.313-2.429-4.348-3.334-6.776-2.021c-2.429,1.313-3.333,4.347-2.021,6.776
		C300.354,127.099,301.073,133.211,299.647,139.622z"/>
	<path d="M269.939,108.367c4.848,0,9.303,0.679,13.241,2.019c0.534,0.181,1.076,0.268,1.61,0.268c2.082,0,4.025-1.311,4.733-3.392
		c0.889-2.614-0.51-5.455-3.124-6.344c-4.977-1.692-10.515-2.551-16.46-2.551c-2.761,0-5,2.239-5,5S267.178,108.367,269.939,108.367
		z"/>
	<path d="M394.479,277.939h-87.236v-40.292c0-14.441-11.749-26.19-26.19-26.19h-8.566c1.54-2.403,2.618-5.127,3.109-8.05
		c15.907-6.385,29.412-17.618,38.565-32.087c8.97,5.459,19.181,8.331,29.85,8.331c31.783,0,57.641-25.857,57.641-57.641
		s-25.857-57.641-57.641-57.641c-18.689,0-35.799,8.802-46.634,23.756c-6.229-2.789-13.042-4.288-20.051-4.288h-8.708v-3.704h9.132
		c2.128,0,4.023-1.348,4.723-3.358s0.049-4.243-1.621-5.563c-15.816-12.512-35.53-19.529-55.677-19.887
		c2.301-3.041,3.616-6.605,3.616-10.451c0-11.449-11.602-20.417-26.413-20.417s-26.413,8.968-26.413,20.417
		c0,3.847,1.315,7.411,3.616,10.451c-20.147,0.358-39.861,7.375-55.677,19.887c-1.669,1.321-2.32,3.553-1.621,5.563
		s2.594,3.358,4.723,3.358h9.132v3.704h-8.709c-9.775,0-19.173,2.901-27.127,8.184L85.759,77.697
		c-9.478-9.335-23.457-11.876-35.616-6.474l-13.934,6.193c-1.373,0.61-2.398,1.805-2.793,3.254
		c-0.396,1.449-0.118,2.999,0.755,4.221l7.224,10.114c3.233,4.526,5.408,9.821,6.291,15.313l3.787,23.562
		c1.765,10.982,8.899,20.209,19.084,24.682l16.966,7.45c9.054,17.026,23.839,30.252,41.641,37.397
		c0.491,2.922,1.569,5.646,3.109,8.048h-13.84c-14.441,0-26.19,11.749-26.19,26.19v40.292H5c-2.761,0-5,2.239-5,5v26
		c0,18.627,8.626,36.328,23.199,47.86v11.307c0,7.217,5.872,13.089,13.089,13.089h49.423c7.217,0,13.089-5.872,13.089-13.089
		v-11.307c8.185-6.478,14.494-14.902,18.452-24.343h164.974c3.958,9.441,10.267,17.865,18.452,24.343v11.307
		c0,7.217,5.872,13.089,13.089,13.089h49.423c7.217,0,13.089-5.872,13.089-13.089v-11.307c14.573-11.533,23.199-29.233,23.199-47.86
		v-26C399.479,280.178,397.241,277.939,394.479,277.939z M323.52,116.374c4.383-7.079,12.05-11.402,20.491-11.402
		c13.3,0,24.121,10.821,24.121,24.121s-10.821,24.121-24.121,24.121c-7.398,0-14.31-3.377-18.879-9.113
		c0.206-0.994,0.406-1.99,0.577-2.999C327.134,132.692,326.324,124.199,323.52,116.374z M344.011,74.369
		c26.269,0,47.641,21.372,47.641,47.641s-21.372,47.641-47.641,47.641c-8.966,0-17.538-2.447-25.035-7.104
		c1.129-2.391,2.152-4.846,3.054-7.367c6.079,5.124,13.819,8.034,21.981,8.034c18.814,0,34.121-15.307,34.121-34.121
		s-15.307-34.121-34.121-34.121c-9.912,0-19.066,4.218-25.439,11.375c-1.14-1.768-2.385-3.479-3.761-5.108
		c-2.592-3.067-5.525-5.757-8.707-8.064C315.086,81.327,328.92,74.369,344.011,74.369z M202.378,30.456
		c8.896,0,16.413,4.771,16.413,10.417s-7.516,10.417-16.413,10.417s-16.413-4.771-16.413-10.417S193.482,30.456,202.378,30.456z
		 M181.196,61.29h42.364c12.9,0,25.645,3.08,37.092,8.843H144.104C155.551,64.37,168.296,61.29,181.196,61.29z M146.139,80.133
		h112.479v3.704H146.139V80.133z M78.741,84.821l13.806,13.597c-0.896,0.907-1.771,1.838-2.601,2.82
		c-1.733,2.052-3.28,4.224-4.637,6.49l-2.587-3.771C75.446,93.353,65.136,85.318,53.33,80.75l0.875-0.389
		C62.581,76.638,72.213,78.39,78.741,84.821z M74.578,149.405c-7.062-3.101-12.008-9.498-13.232-17.112l-3.787-23.562
		c-1.057-6.576-3.582-12.919-7.295-18.449c9.717,3.88,18.196,10.564,24.212,19.334l6.066,8.842
		c-2.232,7.238-2.794,14.976-1.495,22.645c0.669,3.95,1.622,7.785,2.814,11.501L74.578,149.405z M88.907,139.433
		c-1.925-11.366,1.238-22.935,8.678-31.74c7.44-8.805,18.318-13.855,29.845-13.855h13.709h122.479h13.708
		c11.528,0,22.406,5.05,29.846,13.856c7.439,8.805,10.603,20.374,8.678,31.74c-1.362,8.042-4.024,15.564-7.726,22.389
		c-0.054,0.1-0.117,0.197-0.164,0.299c-8.415,15.337-22.163,27.07-38.617,32.966c-0.155,0.051-0.312,0.094-0.459,0.159
		c-7.501,2.631-15.548,4.066-23.905,4.066h-85.2c-8.354,0-16.398-1.435-23.897-4.063c-0.158-0.07-0.327-0.117-0.493-0.17
		C111.54,186.521,93.357,165.711,88.907,139.433z M159.778,209.311h85.2c6.238,0,12.328-0.696,18.19-2.019
		c-2.137,2.542-5.336,4.164-8.91,4.164H150.501c-3.573,0-6.772-1.621-8.909-4.163C147.453,208.615,153.541,209.311,159.778,209.311z
		 M85.712,371.196H36.289c-1.704,0-3.089-1.386-3.089-3.089v-8.792h55.602v8.792C88.801,369.81,87.415,371.196,85.712,371.196z
		 M92.101,349.315H29.899C17.42,339.682,10,324.715,10,308.939v-21h102v21C112,324.716,104.58,339.682,92.101,349.315z
		 M258.61,322.457h-18.37v-20c0-2.761-2.239-5-5-5h-18.984c3.67-7.028,2.56-15.923-3.336-21.819l-9.645-9.644
		c-1.953-1.952-5.118-1.952-7.071,0l-9.644,9.644c-3.521,3.521-5.459,8.202-5.459,13.18c0,3.06,0.739,6.005,2.121,8.639H164.24
		c-2.761,0-5,2.239-5,5v20h-18.37v-10.131c0-32.461,26.409-58.87,58.87-58.87s58.87,26.409,58.87,58.87V322.457z M193.631,294.925
		c-1.631-1.632-2.53-3.801-2.53-6.108s0.899-4.477,2.531-6.109l6.108-6.109l6.109,6.108c3.368,3.369,3.368,8.85,0,12.218
		c-1.632,1.632-3.801,2.531-6.109,2.531S195.263,296.557,193.631,294.925z M230.24,307.456v15h-61v-15H230.24z M268.61,322.457
		v-10.131c0-37.975-30.895-68.87-68.87-68.87s-68.87,30.895-68.87,68.87v10.131h-10.405c1.007-4.398,1.536-8.929,1.536-13.518v-26
		c0-2.761-2.239-5-5-5h-14.757v-40.292c0-8.927,7.263-16.19,16.19-16.19h162.62c8.927,0,16.19,7.263,16.19,16.19v40.292h-14.764
		c-2.761,0-5,2.239-5,5v26c0,4.589,0.529,9.12,1.536,13.518H268.61z M363.191,371.196h-49.423c-1.703,0-3.089-1.386-3.089-3.089
		v-8.792h55.602v8.792C366.28,369.81,364.895,371.196,363.191,371.196z M389.479,308.939c0,15.776-7.42,30.743-19.899,40.376
		h-62.201c-12.479-9.633-19.899-24.599-19.899-40.376v-21h102V308.939z"/>
	<path d="M377.643,322.207c2.761,0,5-2.239,5-5v-20c0-2.761-2.239-5-5-5s-5,2.239-5,5v20
		C372.643,319.968,374.882,322.207,377.643,322.207z"/>
	<path d="M99.643,292.207c-2.761,0-5,2.239-5,5v20c0,2.761,2.239,5,5,5s5-2.239,5-5v-20
		C104.643,294.445,102.404,292.207,99.643,292.207z"/>
</g>
</svg>