<?xml version="1.0" encoding="utf-8"?>
<svg xmlns="http://www.w3.org/2000/svg" viewBox="22 60.7832 308.802 55.7998" width="308.802px" height="55.7998px"><defs><clipPath id="clip0_6066_1905"><rect width="308.803" height="58" fill="white" transform="translate(22 59)"/></clipPath></defs><g clip-path="url(#clip0_6066_1905)" id="object-0"><path d="M143.732 115.651C143.732 112.701 143.732 109.841 143.732 107.071C143.732 104.3 143.732 101.197 143.732 97.7596V81.1377C143.732 77.5974 143.732 74.4039 143.732 71.5567C143.732 68.7095 143.732 65.7853 143.732 62.7841L148.641 71.826H141.158C138.176 71.826 135.535 71.826 133.24 71.826C130.943 71.826 128.752 71.826 126.667 71.826V60.7832H173.744V71.826C171.685 71.826 169.507 71.826 167.211 71.826C164.915 71.826 162.262 71.826 159.253 71.826H151.769L156.719 62.7841C156.719 65.7853 156.719 68.7095 156.719 71.5567C156.719 74.4039 156.719 77.5974 156.719 81.1377V97.7596C156.719 101.197 156.719 104.3 156.719 107.071C156.719 109.841 156.719 112.701 156.719 115.651H143.732Z" fill="white"/><path d="M185.153 116.583C180.398 116.583 176.505 115.769 173.475 114.141C170.469 112.513 168.252 110.274 166.823 107.426C165.419 104.577 164.717 101.309 164.717 97.6218C164.717 93.9347 165.382 90.6792 166.712 87.8538C168.043 85.029 170.025 82.8263 172.662 81.2462C175.322 79.6423 178.624 78.8398 182.566 78.8398C185.916 78.8398 188.786 79.4269 191.176 80.5999C193.566 81.7492 195.401 83.4969 196.682 85.8427C197.963 88.1887 198.604 91.1454 198.604 94.713C198.604 95.6707 198.58 96.5205 198.53 97.2627C198.481 98.0048 198.394 98.747 198.271 99.4891L188.811 96.0056C188.86 95.6942 188.897 95.3711 188.922 95.0362C188.946 94.7011 188.959 94.3899 188.959 94.1022C188.959 91.6846 188.367 89.7933 187.185 88.4285C186.027 87.0401 184.524 86.3458 182.676 86.3458C181.272 86.3458 180.028 86.7526 178.944 87.5668C177.86 88.3569 177.01 89.47 176.394 90.9064C175.778 92.3428 175.47 94.0543 175.47 96.0417V97.8011C175.47 99.8843 175.852 101.668 176.616 103.152C177.404 104.637 178.611 105.774 180.237 106.564C181.863 107.354 183.945 107.749 186.483 107.749C187.468 107.749 188.602 107.665 189.883 107.498C191.188 107.306 192.506 107.031 193.836 106.671C195.192 106.288 196.448 105.81 197.606 105.235L197.975 114.284C197.015 114.716 195.894 115.111 194.613 115.47C193.356 115.805 191.927 116.068 190.326 116.26C188.725 116.476 187 116.583 185.153 116.583ZM168.966 99.4891V93.7436L191.841 93.2766L198.271 95.0362V99.4891H168.966Z" fill="white"/><path d="M214.261 116.511C212.142 116.511 210.294 116.08 208.717 115.218C207.141 114.357 205.909 113.148 205.022 111.591C204.135 110.011 203.692 108.144 203.692 105.989C203.692 103.954 204.061 102.255 204.8 100.89C205.54 99.5015 206.488 98.3758 207.646 97.5141C208.828 96.6524 210.11 95.9937 211.489 95.5393C212.893 95.0842 214.261 94.7493 215.591 94.5337L225.864 92.9891C225.914 91.6006 225.642 90.5236 225.052 89.7572C224.46 88.9672 223.598 88.4167 222.465 88.1055C221.356 87.7941 220.026 87.6385 218.474 87.6385C217.636 87.6385 216.724 87.7101 215.739 87.8538C214.753 87.9734 213.719 88.1653 212.634 88.4285C211.575 88.6918 210.466 89.0151 209.309 89.3979C208.175 89.7814 207.03 90.2477 205.872 90.7987L205.355 81.6409C206.266 81.3302 207.313 81.0065 208.496 80.6715C209.679 80.3365 210.959 80.0371 212.339 79.7737C213.719 79.4867 215.172 79.2588 216.7 79.0914C218.252 78.9239 219.841 78.8398 221.467 78.8398C224.546 78.8398 227.17 79.2831 229.338 80.1691C231.531 81.0308 233.206 82.3955 234.364 84.2626C235.522 86.13 236.101 88.5723 236.101 91.5888C236.101 92.7619 236.101 94.1983 236.101 95.8979C236.101 97.5981 236.101 99.1179 236.101 100.459V103.87C236.101 105.69 236.101 107.569 236.101 109.509C236.101 111.424 236.101 113.471 236.101 115.649H226.677L225.976 110.873H225.125C224.46 111.783 223.622 112.681 222.613 113.567C221.602 114.428 220.395 115.135 218.991 115.685C217.611 116.236 216.035 116.511 214.261 116.511ZM218.658 108.215C219.521 108.215 220.383 108.024 221.245 107.641C222.107 107.234 222.908 106.671 223.647 105.953C224.386 105.211 225.027 104.337 225.569 103.332V97.8374C225.273 98.0527 224.891 98.2562 224.423 98.4479C223.98 98.6156 223.315 98.8067 222.427 99.0221C221.565 99.2138 220.358 99.4654 218.806 99.7766C217.919 99.9441 217.155 100.231 216.515 100.638C215.875 101.046 215.369 101.572 215 102.218C214.655 102.841 214.482 103.583 214.482 104.445C214.482 105.81 214.901 106.779 215.739 107.354C216.601 107.928 217.574 108.215 218.658 108.215Z" fill="white"/><path d="M243.815 98.6994V89.3984C245.983 89.3984 248.077 89.3984 250.097 89.3984C252.118 89.3984 254.002 89.3984 255.751 89.3984C257.525 89.3984 259.422 89.3984 261.442 89.3984C263.487 89.3984 265.581 89.3984 267.725 89.3984V98.6994C265.581 98.6994 263.487 98.6994 261.442 98.6994C259.422 98.6994 257.525 98.6994 255.751 98.6994C254.002 98.6994 252.118 98.6994 250.097 98.6994C248.077 98.6994 245.983 98.6994 243.815 98.6994Z" fill="white"/><path d="M278.802 115.651C278.802 112.598 278.802 109.662 278.802 106.84C278.802 104.018 278.802 100.915 278.802 97.5286V79.1367C278.802 75.674 278.802 72.519 278.802 69.6711C278.802 66.7985 278.802 63.8358 278.802 60.7832H313.209V66.7854C310.57 66.7854 307.734 66.7854 304.697 66.7854C301.687 66.7854 298.137 66.7854 294.045 66.7854H282.801L285.85 61.784C285.85 64.862 285.85 67.8371 285.85 70.7104C285.85 73.5576 285.85 76.6996 285.85 80.1369V97.5286C285.85 100.915 285.85 104.018 285.85 106.84C285.85 109.662 285.85 112.598 285.85 115.651H278.802ZM284.148 91.1027V85.2929H294.561C298.202 85.2929 301.345 85.2929 303.984 85.2929C306.623 85.2929 309.171 85.2929 311.626 85.2929V91.1027C309.013 91.1027 306.387 91.1027 303.745 91.1027C301.132 91.1027 298.044 91.1027 294.481 91.1027H284.148Z" fill="white"/><path d="M323.3 115.649C323.3 112.992 323.3 110.443 323.3 108C323.3 105.558 323.3 102.865 323.3 99.9201V96.3289C323.3 94.1983 323.3 92.2354 323.3 90.4399C323.3 88.6204 323.3 86.8729 323.3 85.1969C323.3 83.4971 323.3 81.7731 323.3 80.0255L329.435 79.8101C329.435 81.5814 329.435 83.329 329.435 85.0529C329.435 86.7526 329.435 88.5246 329.435 90.3683C329.435 92.1874 329.435 94.1748 329.435 96.3289V99.9201C329.435 102.865 329.435 105.558 329.435 108C329.435 110.443 329.435 112.992 329.435 115.649H323.3ZM326.259 71.8015C324.927 71.8015 323.843 71.4423 323.005 70.7244C322.166 70.006 321.749 68.9046 321.749 67.4203C321.749 65.9603 322.166 64.8708 323.005 64.1523C323.843 63.4101 324.951 63.0391 326.331 63.0391C327.686 63.0391 328.771 63.4226 329.583 64.1884C330.398 64.9305 330.802 66.0082 330.802 67.4203C330.802 68.9046 330.398 70.006 329.583 70.7244C328.771 71.4423 327.663 71.8015 326.259 71.8015Z" fill="white"/><path d="M73.9569 72.3718V106.392C72.6423 106.545 71.3064 106.622 69.9509 106.622C65.1847 106.622 60.644 105.66 56.514 103.922V98.2201C60.2702 100.156 64.4273 101.256 68.7532 101.426V89.7876H52.0737C50.522 88.2219 49.2075 86.4837 48.1424 84.6182H68.7532V77.5411H45.4538C45.0957 75.8606 44.9121 74.1296 44.9121 72.3718H73.9569Z" fill="#FF00A4"/><path d="M83.3817 84.6169V77.5442H98.7482C98.3095 79.9999 97.5549 82.3727 96.504 84.6169H83.3817ZM78.1768 72.372V105.639C79.9709 105.202 81.7087 104.624 83.3817 103.922V89.7878H93.3852C92.5532 90.891 91.6348 91.9422 90.6362 92.9345C89.6797 93.8847 88.6685 94.7638 87.6078 95.5612V101.787C90.0564 100.334 92.3091 98.5818 94.3149 96.5901C100.554 90.3918 104.41 81.8304 104.41 72.372H78.1768Z" fill="#FF00A4"/><path d="M104.413 68.1695V63.0001H35.4779C28.0341 63.0001 22 68.9978 22 76.3945C22 83.6553 27.8156 89.5673 35.0701 89.7804C34.6865 89.0237 34.3281 88.2513 33.9939 87.4636C33.5297 86.3802 33.1194 85.277 32.7626 84.1626C29.5266 83.0453 27.2033 79.9897 27.2033 76.3945C27.2033 71.8529 30.9089 68.1723 35.4779 68.1723C35.4792 68.1723 35.4807 68.1723 35.482 68.1723V72.3746C35.482 84.8733 42.2188 95.8075 52.2815 101.787V95.5315C45.2472 90.2248 40.7052 81.8261 40.7052 72.3746V68.1695H104.413Z" fill="#FF00A4"/><path d="M97.542 99.7883C90.4808 106.805 80.7254 111.145 69.9516 111.145C59.1777 111.145 49.4223 106.805 42.3612 99.7883L38.6812 103.445V103.447C46.6846 111.399 57.7391 116.317 69.9516 116.317C82.1641 116.317 93.2186 111.399 101.222 103.447L97.542 99.7883Z" fill="#FF00A4"/></g></svg>