<svg width="398" height="259" viewBox="0 0 398 259" fill="none" xmlns="http://www.w3.org/2000/svg">
<path d="M250.314 45.4356V210.373C243.981 211.113 237.545 211.486 231.015 211.486C208.053 211.486 186.177 206.825 166.279 198.398V170.754C184.376 180.138 204.403 185.473 225.245 186.295V129.871H144.887C137.412 122.28 131.079 113.853 125.947 104.809H225.245V70.4977H112.994C111.269 62.35 110.385 53.958 110.385 45.4356H250.314Z" fill="white"/>
<path d="M295.719 104.803V70.5129H369.751C367.638 82.4188 364.002 93.9227 358.939 104.803H295.719ZM270.644 45.4371V206.724C279.287 204.604 287.66 201.803 295.719 198.4V129.873H343.914C339.905 135.221 335.481 140.318 330.67 145.129C326.062 149.735 321.19 153.997 316.08 157.863V188.049C327.876 181.003 338.729 172.508 348.393 162.852C378.45 132.801 397.029 91.2933 397.029 45.4371H270.644Z" fill="white"/>
<path d="M397.042 25.0619V-0.000207154H64.9328C29.0708 -0.000207154 0 29.0781 0 64.9386C0 100.141 28.0178 128.803 62.9679 129.837C61.1199 126.168 59.3933 122.423 57.7835 118.604C55.547 113.351 53.57 108.003 51.851 102.6C36.2611 97.1835 25.0682 82.369 25.0682 64.9386C25.0682 42.9201 42.9204 25.0756 64.9328 25.0756C64.9389 25.0756 64.9465 25.0756 64.9525 25.0756V45.4494C64.9525 106.046 97.4083 159.058 145.888 188.048V157.719C111.998 131.991 90.1163 91.2723 90.1163 45.4494V25.0619H397.042Z" fill="white"/>
<path d="M363.938 178.357C329.92 212.376 282.921 233.415 231.015 233.415C179.11 233.415 132.111 212.376 98.0925 178.357L80.3633 196.088V196.094C118.921 234.646 172.179 258.491 231.015 258.491C289.852 258.491 343.109 234.646 381.669 196.094L363.938 178.357Z" fill="white"/>
</svg>
